<?xml version="1.0" encoding="UTF-8"?><svg xmlns="http://www.w3.org/2000/svg" xmlns:xlink="http://www.w3.org/1999/xlink" fill-opacity="1" color-rendering="auto" color-interpolation="auto" text-rendering="auto" stroke="black" stroke-linecap="square" width="891" stroke-miterlimit="10" shape-rendering="auto" stroke-opacity="1" fill="black" stroke-dasharray="none" font-weight="normal" stroke-width="1" height="641" font-family="'Dialog'" font-style="normal" stroke-linejoin="miter" font-size="12px" stroke-dashoffset="0" image-rendering="auto">
  <!--Generated by ySVG 2.6-->
  <defs id="genericDefs"/>
  <g>
    <defs id="defs1">
      <clipPath clipPathUnits="userSpaceOnUse" id="clipPath1">
        <path d="M0 0 L891 0 L891 641 L0 641 L0 0 Z"/>
      </clipPath>
      <clipPath clipPathUnits="userSpaceOnUse" id="clipPath2">
        <path d="M304 156 L1195 156 L1195 797 L304 797 L304 156 Z"/>
      </clipPath>
    </defs>
    <g fill="white" text-rendering="geometricPrecision" shape-rendering="geometricPrecision" transform="translate(-304,-156)" stroke="white">
      <rect x="304" width="891" height="641" y="156" clip-path="url(#clipPath2)" stroke="none"/>
    </g>
    <g fill="rgb(255,153,0)" text-rendering="geometricPrecision" shape-rendering="geometricPrecision" transform="matrix(1,0,0,1,-304,-156)" stroke="rgb(255,153,0)">
      <rect x="741.5" y="171.5" clip-path="url(#clipPath2)" width="66" rx="4" ry="4" height="30" stroke="none"/>
    </g>
    <g text-rendering="geometricPrecision" stroke-miterlimit="1.45" shape-rendering="geometricPrecision" transform="matrix(1,0,0,1,-304,-156)" stroke-linecap="butt">
      <rect x="741.5" y="171.5" clip-path="url(#clipPath2)" fill="none" width="66" rx="4" ry="4" height="30"/>
      <text x="761.0299" xml:space="preserve" y="191.156" clip-path="url(#clipPath2)" font-family="sans-serif" stroke="none">Start</text>
    </g>
    <g fill="rgb(255,204,0)" text-rendering="geometricPrecision" shape-rendering="geometricPrecision" transform="matrix(1,0,0,1,-304,-156)" stroke="rgb(255,204,0)">
      <rect x="528.5" width="492" height="39" y="240.5" clip-path="url(#clipPath2)" stroke="none"/>
    </g>
    <g text-rendering="geometricPrecision" stroke-miterlimit="1.45" shape-rendering="geometricPrecision" transform="matrix(1,0,0,1,-304,-156)" stroke-linecap="butt">
      <rect fill="none" x="528.5" width="492" height="39" y="240.5" clip-path="url(#clipPath2)"/>
      <text x="570.6905" xml:space="preserve" y="256.484" clip-path="url(#clipPath2)" font-family="sans-serif" stroke="none">Separates all coins in two groups with equal number of coins. If the total</text>
      <text x="600.9907" xml:space="preserve" y="272.8281" clip-path="url(#clipPath2)" font-family="sans-serif" stroke="none">number of coins is even, just left one coin outside the groups.</text>
    </g>
    <g fill="rgb(255,204,0)" text-rendering="geometricPrecision" shape-rendering="geometricPrecision" transform="matrix(1,0,0,1,-304,-156)" stroke="rgb(255,204,0)">
      <rect x="696.5" width="156" height="30" y="318.5" clip-path="url(#clipPath2)" stroke="none"/>
    </g>
    <g text-rendering="geometricPrecision" stroke-miterlimit="1.45" shape-rendering="geometricPrecision" transform="matrix(1,0,0,1,-304,-156)" stroke-linecap="butt">
      <rect fill="none" x="696.5" width="156" height="30" y="318.5" clip-path="url(#clipPath2)"/>
      <text x="722.2696" xml:space="preserve" y="338.156" clip-path="url(#clipPath2)" font-family="sans-serif" stroke="none">Weighs first group</text>
    </g>
    <g fill="rgb(255,204,0)" text-rendering="geometricPrecision" shape-rendering="geometricPrecision" transform="matrix(1,0,0,1,-304,-156)" stroke="rgb(255,204,0)">
      <rect x="696.5" width="156" height="30" y="392" clip-path="url(#clipPath2)" stroke="none"/>
    </g>
    <g text-rendering="geometricPrecision" stroke-miterlimit="1.45" shape-rendering="geometricPrecision" transform="matrix(1,0,0,1,-304,-156)" stroke-linecap="butt">
      <rect fill="none" x="696.5" width="156" height="30" y="392" clip-path="url(#clipPath2)"/>
      <text x="713.2336" xml:space="preserve" y="411.656" clip-path="url(#clipPath2)" font-family="sans-serif" stroke="none">Weighs second group</text>
    </g>
    <g fill="rgb(255,204,0)" text-rendering="geometricPrecision" shape-rendering="geometricPrecision" transform="matrix(1,0,0,1,-304,-156)" stroke="rgb(255,204,0)">
      <path d="M662 602.5 L789 578.5 L916 602.5 L789 626.5 Z" fill-rule="evenodd" clip-path="url(#clipPath2)" stroke="none"/>
    </g>
    <g text-rendering="geometricPrecision" stroke-miterlimit="1.45" shape-rendering="geometricPrecision" transform="matrix(1,0,0,1,-304,-156)" stroke-linecap="butt">
      <path fill="none" d="M662 602.5 L789 578.5 L916 602.5 L789 626.5 Z" fill-rule="evenodd" clip-path="url(#clipPath2)"/>
      <text x="688.3433" xml:space="preserve" y="607.156" clip-path="url(#clipPath2)" font-family="sans-serif" stroke="none">Both groups weighs exact the same</text>
    </g>
    <g fill="rgb(255,204,0)" text-rendering="geometricPrecision" shape-rendering="geometricPrecision" transform="matrix(1,0,0,1,-304,-156)" stroke="rgb(255,204,0)">
      <path d="M319 632.5 L446 608.5 L573 632.5 L446 656.5 Z" fill-rule="evenodd" clip-path="url(#clipPath2)" stroke="none"/>
    </g>
    <g text-rendering="geometricPrecision" stroke-miterlimit="1.45" shape-rendering="geometricPrecision" transform="matrix(1,0,0,1,-304,-156)" stroke-linecap="butt">
      <path fill="none" d="M319 632.5 L446 608.5 L573 632.5 L446 656.5 Z" fill-rule="evenodd" clip-path="url(#clipPath2)"/>
      <text x="352.8673" xml:space="preserve" y="637.156" clip-path="url(#clipPath2)" font-family="sans-serif" stroke="none">Each group has a different weigh</text>
    </g>
    <g fill="rgb(153,204,0)" text-rendering="geometricPrecision" shape-rendering="geometricPrecision" transform="matrix(1,0,0,1,-304,-156)" stroke="rgb(153,204,0)">
      <path d="M689 677.25 L914 677.25 L889 692.25 L914 707.25 L689 707.25 L664 692.25 Z" fill-rule="evenodd" clip-path="url(#clipPath2)" stroke="none"/>
    </g>
    <g text-rendering="geometricPrecision" stroke-miterlimit="1.45" shape-rendering="geometricPrecision" transform="matrix(1,0,0,1,-304,-156)" stroke-linecap="butt">
      <path fill="none" d="M689 677.25 L914 677.25 L889 692.25 L914 707.25 L689 707.25 L664 692.25 Z" fill-rule="evenodd" clip-path="url(#clipPath2)"/>
      <text x="693.6233" xml:space="preserve" y="696.906" clip-path="url(#clipPath2)" font-family="sans-serif" stroke="none">The fake coin is the coin left alone</text>
    </g>
    <g fill="rgb(153,204,0)" text-rendering="geometricPrecision" shape-rendering="geometricPrecision" transform="matrix(1,0,0,1,-304,-156)" stroke="rgb(153,204,0)">
      <rect x="756" y="752" clip-path="url(#clipPath2)" width="66" rx="4" ry="4" height="30" stroke="none"/>
    </g>
    <g text-rendering="geometricPrecision" stroke-miterlimit="1.45" shape-rendering="geometricPrecision" transform="matrix(1,0,0,1,-304,-156)" stroke-linecap="butt">
      <rect x="756" y="752" clip-path="url(#clipPath2)" fill="none" width="66" rx="4" ry="4" height="30"/>
      <text x="778.2659" xml:space="preserve" y="771.656" clip-path="url(#clipPath2)" font-family="sans-serif" stroke="none">End</text>
    </g>
    <g fill="rgb(255,204,0)" text-rendering="geometricPrecision" shape-rendering="geometricPrecision" transform="matrix(1,0,0,1,-304,-156)" stroke="rgb(255,204,0)">
      <rect x="365.5" width="161" height="30" y="364.25" clip-path="url(#clipPath2)" stroke="none"/>
    </g>
    <g text-rendering="geometricPrecision" stroke-miterlimit="1.45" shape-rendering="geometricPrecision" transform="matrix(1,0,0,1,-304,-156)" stroke-linecap="butt">
      <rect fill="none" x="365.5" width="161" height="30" y="364.25" clip-path="url(#clipPath2)"/>
      <text x="384.6855" xml:space="preserve" y="383.906" clip-path="url(#clipPath2)" font-family="sans-serif" stroke="none">Pick the lightes group</text>
    </g>
    <g fill="rgb(255,204,0)" text-rendering="geometricPrecision" shape-rendering="geometricPrecision" transform="matrix(1,0,0,1,-304,-156)" stroke="rgb(255,204,0)">
      <path d="M924 502.25 L1052 478.25 L1180 502.25 L1052 526.25 Z" fill-rule="evenodd" clip-path="url(#clipPath2)" stroke="none"/>
    </g>
    <g text-rendering="geometricPrecision" stroke-miterlimit="1.45" shape-rendering="geometricPrecision" transform="matrix(1,0,0,1,-304,-156)" stroke-linecap="butt">
      <path fill="none" d="M924 502.25 L1052 478.25 L1180 502.25 L1052 526.25 Z" fill-rule="evenodd" clip-path="url(#clipPath2)"/>
      <text x="965.7734" xml:space="preserve" y="506.906" clip-path="url(#clipPath2)" font-family="sans-serif" stroke="none">Each group have only one coin</text>
    </g>
    <g fill="rgb(255,204,0)" text-rendering="geometricPrecision" shape-rendering="geometricPrecision" transform="matrix(1,0,0,1,-304,-156)" stroke="rgb(255,204,0)">
      <path d="M475.5 508.25 L624 478.25 L772.5 508.25 L624 538.25 Z" fill-rule="evenodd" clip-path="url(#clipPath2)" stroke="none"/>
    </g>
    <g text-rendering="geometricPrecision" stroke-miterlimit="1.45" shape-rendering="geometricPrecision" transform="matrix(1,0,0,1,-304,-156)" stroke-linecap="butt">
      <path fill="none" d="M475.5 508.25 L624 478.25 L772.5 508.25 L624 538.25 Z" fill-rule="evenodd" clip-path="url(#clipPath2)"/>
      <text x="512.7112" xml:space="preserve" y="512.906" clip-path="url(#clipPath2)" font-family="sans-serif" stroke="none">Each group has more than a single coin</text>
    </g>
    <g fill="rgb(153,204,0)" text-rendering="geometricPrecision" shape-rendering="geometricPrecision" transform="matrix(1,0,0,1,-304,-156)" stroke="rgb(153,204,0)">
      <path d="M973.3003 582.25 L1156 582.25 L1135.6995 601.75 L1156 621.25 L973.3003 621.25 L953 601.75 Z" fill-rule="evenodd" clip-path="url(#clipPath2)" stroke="none"/>
    </g>
    <g text-rendering="geometricPrecision" stroke-miterlimit="1.45" shape-rendering="geometricPrecision" transform="matrix(1,0,0,1,-304,-156)" stroke-linecap="butt">
      <path fill="none" d="M973.3003 582.25 L1156 582.25 L1135.6995 601.75 L1156 621.25 L973.3003 621.25 L953 601.75 Z" fill-rule="evenodd" clip-path="url(#clipPath2)"/>
      <text x="988.0855" xml:space="preserve" y="598.2339" clip-path="url(#clipPath2)" font-family="sans-serif" stroke="none">The fake coin is the one</text>
      <text x="996.5876" xml:space="preserve" y="614.5781" clip-path="url(#clipPath2)" font-family="sans-serif" stroke="none">of the lightest group</text>
    </g>
    <g fill="rgb(153,204,0)" text-rendering="geometricPrecision" shape-rendering="geometricPrecision" transform="matrix(1,0,0,1,-304,-156)" stroke="rgb(153,204,0)">
      <rect x="1021.5" y="677.25" clip-path="url(#clipPath2)" width="66" rx="4" ry="4" height="30" stroke="none"/>
    </g>
    <g text-rendering="geometricPrecision" stroke-miterlimit="1.45" shape-rendering="geometricPrecision" transform="matrix(1,0,0,1,-304,-156)" stroke-linecap="butt">
      <rect x="1021.5" y="677.25" clip-path="url(#clipPath2)" fill="none" width="66" rx="4" ry="4" height="30"/>
      <text x="1043.7659" xml:space="preserve" y="696.906" clip-path="url(#clipPath2)" font-family="sans-serif" stroke="none">End</text>
      <path fill="none" d="M774.5 201.4656 L774.5 232.5" clip-path="url(#clipPath2)"/>
      <path d="M774.5 240.5 L779.5 228.5 L774.5 231.5 L769.5 228.5 Z" clip-path="url(#clipPath2)" stroke="none"/>
      <path fill="none" d="M774.5 279.5 L774.5 310.5" clip-path="url(#clipPath2)"/>
      <path d="M774.5 318.5 L779.5 306.5 L774.5 309.5 L769.5 306.5 Z" clip-path="url(#clipPath2)" stroke="none"/>
      <path fill="none" d="M774.5 348.5 L774.5 384" clip-path="url(#clipPath2)"/>
      <path d="M774.5 392 L779.5 380 L774.5 383 L769.5 380 Z" clip-path="url(#clipPath2)" stroke="none"/>
      <path fill="none" d="M789 626.4713 L789 669.2507" clip-path="url(#clipPath2)"/>
      <path d="M789 677.2507 L794 665.2507 L789 668.2507 L784 665.2507 Z" clip-path="url(#clipPath2)" stroke="none"/>
      <path fill="none" d="M789 707.2511 L789 743.9753" clip-path="url(#clipPath2)"/>
      <path d="M789 751.9753 L794 739.9753 L789 742.9753 L784 739.9753 Z" clip-path="url(#clipPath2)" stroke="none"/>
      <path fill="none" d="M446 608.4796 L446 402.25" clip-path="url(#clipPath2)"/>
      <path d="M446 394.25 L441 406.25 L446 403.25 L451 406.25 Z" clip-path="url(#clipPath2)" stroke="none"/>
      <path fill="none" d="M446 364.25 L446 260 L520.5 260" clip-path="url(#clipPath2)"/>
      <path d="M528.5 260 L516.5 255 L519.5 260 L516.5 265 Z" clip-path="url(#clipPath2)" stroke="none"/>
      <path fill="none" d="M852.5 407 L1052 407 L1052 470.205" clip-path="url(#clipPath2)"/>
      <path d="M1052 478.205 L1057 466.205 L1052 469.205 L1047 466.205 Z" clip-path="url(#clipPath2)" stroke="none"/>
      <path fill="none" d="M713.4865 422 L624 444 L624 470.2269" clip-path="url(#clipPath2)"/>
      <path d="M624 478.2269 L629 466.2269 L624 469.2269 L619 466.2269 Z" clip-path="url(#clipPath2)" stroke="none"/>
      <path fill="none" d="M690.8298 524.7549 L789 549 L789 570.4929" clip-path="url(#clipPath2)"/>
      <path d="M789 578.4929 L794 566.4929 L789 569.4929 L784 566.4929 Z" clip-path="url(#clipPath2)" stroke="none"/>
      <path fill="none" d="M575.8733 528.5181 L475 571 L459.7914 603.2526" clip-path="url(#clipPath2)"/>
      <path d="M456.3794 610.4885 L466.0199 601.7672 L460.2179 602.3481 L456.975 597.5022 Z" clip-path="url(#clipPath2)" stroke="none"/>
      <path fill="none" d="M1052.5994 526.1047 L1053.8099 574.2872" clip-path="url(#clipPath2)"/>
      <path d="M1054.0109 582.2847 L1058.7079 570.1629 L1053.7848 573.2875 L1048.7111 570.4141 Z" clip-path="url(#clipPath2)" stroke="none"/>
      <path fill="none" d="M1054.5 621.2375 L1054.5 669.2361" clip-path="url(#clipPath2)"/>
      <path d="M1054.5 677.2361 L1059.5 665.2361 L1054.5 668.2361 L1049.5 665.2361 Z" clip-path="url(#clipPath2)" stroke="none"/>
    </g>
  </g>
</svg>
