<?xml version="1.0" encoding="UTF-8"?><svg xmlns="http://www.w3.org/2000/svg" xmlns:xlink="http://www.w3.org/1999/xlink" fill-opacity="1" color-rendering="auto" color-interpolation="auto" text-rendering="auto" stroke="black" stroke-linecap="square" width="926" stroke-miterlimit="10" shape-rendering="auto" stroke-opacity="1" fill="black" stroke-dasharray="none" font-weight="normal" stroke-width="1" height="743" font-family="'Dialog'" font-style="normal" stroke-linejoin="miter" font-size="12px" stroke-dashoffset="0" image-rendering="auto">
  <!--Generated by ySVG 2.6-->
  <defs id="genericDefs"/>
  <g>
    <defs id="defs1">
      <clipPath clipPathUnits="userSpaceOnUse" id="clipPath1">
        <path d="M0 0 L926 0 L926 743 L0 743 L0 0 Z"/>
      </clipPath>
      <clipPath clipPathUnits="userSpaceOnUse" id="clipPath2">
        <path d="M3 149 L929 149 L929 892 L3 892 L3 149 Z"/>
      </clipPath>
    </defs>
    <g fill="white" text-rendering="geometricPrecision" shape-rendering="geometricPrecision" transform="translate(-3,-149)" stroke="white">
      <rect x="3" width="926" height="743" y="149" clip-path="url(#clipPath2)" stroke="none"/>
    </g>
    <g fill="rgb(255,153,0)" text-rendering="geometricPrecision" shape-rendering="geometricPrecision" transform="matrix(1,0,0,1,-3,-149)" stroke="rgb(255,153,0)">
      <rect x="566" y="164" clip-path="url(#clipPath2)" width="66" rx="4" ry="4" height="30" stroke="none"/>
    </g>
    <g text-rendering="geometricPrecision" stroke-miterlimit="1.45" shape-rendering="geometricPrecision" transform="matrix(1,0,0,1,-3,-149)" stroke-linecap="butt">
      <rect x="566" y="164" clip-path="url(#clipPath2)" fill="none" width="66" rx="4" ry="4" height="30"/>
      <text x="585.5299" xml:space="preserve" y="183.656" clip-path="url(#clipPath2)" font-family="sans-serif" stroke="none">Start</text>
    </g>
    <g fill="rgb(255,204,0)" text-rendering="geometricPrecision" shape-rendering="geometricPrecision" transform="matrix(1,0,0,1,-3,-149)" stroke="rgb(255,204,0)">
      <rect x="342.5" width="513" height="30" y="231" clip-path="url(#clipPath2)" stroke="none"/>
    </g>
    <g text-rendering="geometricPrecision" stroke-miterlimit="1.45" shape-rendering="geometricPrecision" transform="matrix(1,0,0,1,-3,-149)" stroke-linecap="butt">
      <rect fill="none" x="342.5" width="513" height="30" y="231" clip-path="url(#clipPath2)"/>
      <text x="355.8362" xml:space="preserve" y="242.484" clip-path="url(#clipPath2)" font-family="sans-serif" stroke="none">Separates all coins in two groups, by the middle if the coin group has an even amount.</text>
      <text x="378.9784" xml:space="preserve" y="258.8281" clip-path="url(#clipPath2)" font-family="sans-serif" stroke="none">If no, separate in a way that one half has only one element more than another</text>
    </g>
    <g fill="rgb(255,204,0)" text-rendering="geometricPrecision" shape-rendering="geometricPrecision" transform="matrix(1,0,0,1,-3,-149)" stroke="rgb(255,204,0)">
      <rect x="523.5" width="151" height="30" y="314.2953" clip-path="url(#clipPath2)" stroke="none"/>
    </g>
    <g text-rendering="geometricPrecision" stroke-miterlimit="1.45" shape-rendering="geometricPrecision" transform="matrix(1,0,0,1,-3,-149)" stroke-linecap="butt">
      <rect fill="none" x="523.5" width="151" height="30" y="314.2953" clip-path="url(#clipPath2)"/>
      <text x="536.3596" xml:space="preserve" y="333.9513" clip-path="url(#clipPath2)" font-family="sans-serif" stroke="none">Weighs the group one</text>
    </g>
    <g fill="rgb(255,204,0)" text-rendering="geometricPrecision" shape-rendering="geometricPrecision" transform="matrix(1,0,0,1,-3,-149)" stroke="rgb(255,204,0)">
      <rect x="523.5" width="151" height="30" y="397.5905" clip-path="url(#clipPath2)" stroke="none"/>
    </g>
    <g text-rendering="geometricPrecision" stroke-miterlimit="1.45" shape-rendering="geometricPrecision" transform="matrix(1,0,0,1,-3,-149)" stroke-linecap="butt">
      <rect fill="none" x="523.5" width="151" height="30" y="397.5905" clip-path="url(#clipPath2)"/>
      <text x="536.5696" xml:space="preserve" y="417.2466" clip-path="url(#clipPath2)" font-family="sans-serif" stroke="none">Weighs the group two</text>
    </g>
    <g fill="rgb(255,204,0)" text-rendering="geometricPrecision" shape-rendering="geometricPrecision" transform="matrix(1,0,0,1,-3,-149)" stroke="rgb(255,204,0)">
      <rect x="388.7338" width="420.5324" height="30" y="479.5645" clip-path="url(#clipPath2)" stroke="none"/>
    </g>
    <g text-rendering="geometricPrecision" stroke-miterlimit="1.45" shape-rendering="geometricPrecision" transform="matrix(1,0,0,1,-3,-149)" stroke-linecap="butt">
      <rect fill="none" x="388.7338" width="420.5324" height="30" y="479.5645" clip-path="url(#clipPath2)"/>
      <text x="421.5907" xml:space="preserve" y="499.2206" clip-path="url(#clipPath2)" font-family="sans-serif" stroke="none">Discover in which group the fake coin are using proportionality</text>
    </g>
    <g fill="rgb(255,204,0)" text-rendering="geometricPrecision" shape-rendering="geometricPrecision" transform="matrix(1,0,0,1,-3,-149)" stroke="rgb(255,204,0)">
      <path d="M244.1332 603.5138 L416.5814 571.1174 L589.033 603.5138 L416.5814 635.9102 Z" fill-rule="evenodd" clip-path="url(#clipPath2)" stroke="none"/>
    </g>
    <g text-rendering="geometricPrecision" stroke-miterlimit="1.45" shape-rendering="geometricPrecision" transform="matrix(1,0,0,1,-3,-149)" stroke-linecap="butt">
      <path fill="none" d="M244.1332 603.5138 L416.5814 571.1174 L589.033 603.5138 L416.5814 635.9102 Z" fill-rule="evenodd" clip-path="url(#clipPath2)"/>
      <text x="386.731" xml:space="preserve" y="591.8257" clip-path="url(#clipPath2)" font-family="sans-serif" stroke="none">One of the</text>
      <text x="295.3323" xml:space="preserve" y="608.1698" clip-path="url(#clipPath2)" font-family="sans-serif" stroke="none">group has just one coin and another group</text>
      <text x="378.3609" xml:space="preserve" y="624.5139" clip-path="url(#clipPath2)" font-family="sans-serif" stroke="none">has two coins</text>
    </g>
    <g fill="rgb(255,204,0)" text-rendering="geometricPrecision" shape-rendering="geometricPrecision" transform="matrix(1,0,0,1,-3,-149)" stroke="rgb(255,204,0)">
      <path d="M18.1078 440.337 L154.2218 417.85 L290.3354 440.337 L154.2218 462.824 Z" fill-rule="evenodd" clip-path="url(#clipPath2)" stroke="none"/>
    </g>
    <g text-rendering="geometricPrecision" stroke-miterlimit="1.45" shape-rendering="geometricPrecision" transform="matrix(1,0,0,1,-3,-149)" stroke-linecap="butt">
      <path fill="none" d="M18.1078 440.337 L154.2218 417.85 L290.3354 440.337 L154.2218 462.824 Z" fill-rule="evenodd" clip-path="url(#clipPath2)"/>
      <text x="33.5609" xml:space="preserve" y="444.9925" clip-path="url(#clipPath2)" font-family="sans-serif" stroke="none">The fake group is in the group of two coins</text>
    </g>
    <g fill="rgb(255,204,0)" text-rendering="geometricPrecision" shape-rendering="geometricPrecision" transform="matrix(1,0,0,1,-3,-149)" stroke="rgb(255,204,0)">
      <path d="M641.0707 603.5139 L777.1838 581.0269 L913.2972 603.5139 L777.1838 626.0009 Z" fill-rule="evenodd" clip-path="url(#clipPath2)" stroke="none"/>
    </g>
    <g text-rendering="geometricPrecision" stroke-miterlimit="1.45" shape-rendering="geometricPrecision" transform="matrix(1,0,0,1,-3,-149)" stroke-linecap="butt">
      <path fill="none" d="M641.0707 603.5139 L777.1838 581.0269 L913.2972 603.5139 L777.1838 626.0009 Z" fill-rule="evenodd" clip-path="url(#clipPath2)"/>
      <text x="691.5284" xml:space="preserve" y="608.1698" clip-path="url(#clipPath2)" font-family="sans-serif" stroke="none">Both groups has only one coin</text>
    </g>
    <g fill="rgb(153,204,0)" text-rendering="geometricPrecision" shape-rendering="geometricPrecision" transform="matrix(1,0,0,1,-3,-149)" stroke="rgb(153,204,0)">
      <path d="M668.2939 682.0899 L913.2995 682.0899 L886.0767 697.0899 L913.2995 712.0899 L668.2939 712.0899 L641.0712 697.0899 Z" fill-rule="evenodd" clip-path="url(#clipPath2)" stroke="none"/>
    </g>
    <g text-rendering="geometricPrecision" stroke-miterlimit="1.45" shape-rendering="geometricPrecision" transform="matrix(1,0,0,1,-3,-149)" stroke-linecap="butt">
      <path fill="none" d="M668.2939 682.0899 L913.2995 682.0899 L886.0767 697.0899 L913.2995 712.0899 L668.2939 712.0899 L641.0712 697.0899 Z" fill-rule="evenodd" clip-path="url(#clipPath2)"/>
      <text x="674.8363" xml:space="preserve" y="701.7463" clip-path="url(#clipPath2)" font-family="sans-serif" stroke="none">The fake coin is in the lightest group</text>
    </g>
    <g fill="rgb(153,204,0)" text-rendering="geometricPrecision" shape-rendering="geometricPrecision" transform="matrix(1,0,0,1,-3,-149)" stroke="rgb(153,204,0)">
      <rect x="744.1851" y="768.1796" clip-path="url(#clipPath2)" width="66" rx="4" ry="4" height="30" stroke="none"/>
    </g>
    <g text-rendering="geometricPrecision" stroke-miterlimit="1.45" shape-rendering="geometricPrecision" transform="matrix(1,0,0,1,-3,-149)" stroke-linecap="butt">
      <rect x="744.1851" y="768.1796" clip-path="url(#clipPath2)" fill="none" width="66" rx="4" ry="4" height="30"/>
      <text x="766.451" xml:space="preserve" y="787.8357" clip-path="url(#clipPath2)" font-family="sans-serif" stroke="none">End</text>
    </g>
    <g fill="rgb(153,204,0)" text-rendering="geometricPrecision" shape-rendering="geometricPrecision" transform="matrix(1,0,0,1,-3,-149)" stroke="rgb(153,204,0)">
      <rect x="383.5812" y="846.7821" clip-path="url(#clipPath2)" width="66" rx="4" ry="4" height="30" stroke="none"/>
    </g>
    <g text-rendering="geometricPrecision" stroke-miterlimit="1.45" shape-rendering="geometricPrecision" transform="matrix(1,0,0,1,-3,-149)" stroke-linecap="butt">
      <rect x="383.5812" y="846.7821" clip-path="url(#clipPath2)" fill="none" width="66" rx="4" ry="4" height="30"/>
      <text x="405.8471" xml:space="preserve" y="866.4381" clip-path="url(#clipPath2)" font-family="sans-serif" stroke="none">End</text>
    </g>
    <g fill="rgb(153,204,0)" text-rendering="geometricPrecision" shape-rendering="geometricPrecision" transform="matrix(1,0,0,1,-3,-149)" stroke="rgb(153,204,0)">
      <path d="M338.6955 768.1796 L513.9383 768.1796 L494.4669 783.1796 L513.9383 798.1796 L338.6955 798.1796 L319.2241 783.1796 Z" fill-rule="evenodd" clip-path="url(#clipPath2)" stroke="none"/>
    </g>
    <g text-rendering="geometricPrecision" stroke-miterlimit="1.45" shape-rendering="geometricPrecision" transform="matrix(1,0,0,1,-3,-149)" stroke-linecap="butt">
      <path fill="none" d="M338.6955 768.1796 L513.9383 768.1796 L494.4669 783.1796 L513.9383 798.1796 L338.6955 798.1796 L319.2241 783.1796 Z" fill-rule="evenodd" clip-path="url(#clipPath2)"/>
      <text x="335.8386" xml:space="preserve" y="787.8357" clip-path="url(#clipPath2)" font-family="sans-serif" stroke="none">The fake coin is in this group</text>
    </g>
    <g fill="rgb(255,204,0)" text-rendering="geometricPrecision" shape-rendering="geometricPrecision" transform="matrix(1,0,0,1,-3,-149)" stroke="rgb(255,204,0)">
      <path d="M280.4678 697.0902 L416.5812 674.6032 L552.6946 697.0902 L416.5812 719.5772 Z" fill-rule="evenodd" clip-path="url(#clipPath2)" stroke="none"/>
    </g>
    <g text-rendering="geometricPrecision" stroke-miterlimit="1.45" shape-rendering="geometricPrecision" transform="matrix(1,0,0,1,-3,-149)" stroke-linecap="butt">
      <path fill="none" d="M280.4678 697.0902 L416.5812 674.6032 L552.6946 697.0902 L416.5812 719.5772 Z" fill-rule="evenodd" clip-path="url(#clipPath2)"/>
      <text x="310.8304" xml:space="preserve" y="701.7463" clip-path="url(#clipPath2)" font-family="sans-serif" stroke="none">The fake coin is the group of one coin</text>
      <path fill="none" d="M599 194.0161 L599 223" clip-path="url(#clipPath2)"/>
      <path d="M599 231 L604 219 L599 222 L594 219 Z" clip-path="url(#clipPath2)" stroke="none"/>
      <path fill="none" d="M599 261 L599 306.2953" clip-path="url(#clipPath2)"/>
      <path d="M599 314.2953 L604 302.2953 L599 305.2953 L594 302.2953 Z" clip-path="url(#clipPath2)" stroke="none"/>
      <path fill="none" d="M599 344.2953 L599 389.5905" clip-path="url(#clipPath2)"/>
      <path d="M599 397.5905 L604 385.5905 L599 388.5905 L594 385.5905 Z" clip-path="url(#clipPath2)" stroke="none"/>
      <path fill="none" d="M599 427.5905 L599 471.5645" clip-path="url(#clipPath2)"/>
      <path d="M599 479.5645 L604 467.5645 L599 470.5645 L594 467.5645 Z" clip-path="url(#clipPath2)" stroke="none"/>
      <path fill="none" d="M548.2527 509.5645 L416.5812 548.4843 L416.5812 563.1356" clip-path="url(#clipPath2)"/>
      <path d="M416.5812 571.1356 L421.5812 559.1356 L416.5812 562.1356 L411.5812 559.1356 Z" clip-path="url(#clipPath2)" stroke="none"/>
      <path fill="none" d="M355.1868 582.6492 L154.2218 514.3523 L154.2218 470.8521" clip-path="url(#clipPath2)"/>
      <path d="M154.2218 462.8521 L149.2218 474.8521 L154.2218 471.8521 L159.2218 474.8521 Z" clip-path="url(#clipPath2)" stroke="none"/>
      <path fill="none" d="M154.2218 417.8948 L154.2218 246 L334.5 246" clip-path="url(#clipPath2)"/>
      <path d="M342.5 246 L330.5 241 L333.5 246 L330.5 251 Z" clip-path="url(#clipPath2)" stroke="none"/>
      <path fill="none" d="M648.5695 509.5645 L777.1851 548.4843 L777.1851 573.0237" clip-path="url(#clipPath2)"/>
      <path d="M777.1851 581.0237 L782.1851 569.0237 L777.1851 572.0237 L772.1851 569.0237 Z" clip-path="url(#clipPath2)" stroke="none"/>
      <path fill="none" d="M777.1851 626.0397 L777.1851 674.0683" clip-path="url(#clipPath2)"/>
      <path d="M777.1851 682.0683 L782.1851 670.0683 L777.1851 673.0683 L772.1851 670.0683 Z" clip-path="url(#clipPath2)" stroke="none"/>
      <path fill="none" d="M777.1851 712.097 L777.1851 760.1509" clip-path="url(#clipPath2)"/>
      <path d="M777.1851 768.1509 L782.1851 756.1509 L777.1851 759.1509 L772.1851 756.1509 Z" clip-path="url(#clipPath2)" stroke="none"/>
      <path fill="none" d="M416.5812 798.1863 L416.5812 838.7836" clip-path="url(#clipPath2)"/>
      <path d="M416.5812 846.7836 L421.5812 834.7836 L416.5812 837.7836 L411.5812 834.7836 Z" clip-path="url(#clipPath2)" stroke="none"/>
      <path fill="none" d="M416.5812 635.9092 L416.5812 666.5954" clip-path="url(#clipPath2)"/>
      <path d="M416.5812 674.5954 L421.5812 662.5954 L416.5812 665.5954 L411.5812 662.5954 Z" clip-path="url(#clipPath2)" stroke="none"/>
      <path fill="none" d="M416.5812 719.5794 L416.5812 760.1802" clip-path="url(#clipPath2)"/>
      <path d="M416.5812 768.1802 L421.5812 756.1802 L416.5812 759.1802 L411.5812 756.1802 Z" clip-path="url(#clipPath2)" stroke="none"/>
    </g>
  </g>
</svg>
